<?xml version="1.0" standalone="no"?><!DOCTYPE svg PUBLIC "-//W3C//DTD SVG 1.1//EN" "http://www.w3.org/Graphics/SVG/1.1/DTD/svg11.dtd"><svg t="1779112552350" class="icon" viewBox="0 0 1024 1024" version="1.1" xmlns="http://www.w3.org/2000/svg" p-id="1789" xmlns:xlink="http://www.w3.org/1999/xlink" width="200" height="200"><path d="M679.88 1010.74H368.12c-15.64 0-28.44-12.49-28.53-27.83l-0.06-9.73c-2.3-394.62-2.22-603.84 0.25-621.87 3.82-27.91 9.39-40.91 10.99-44.2 1.76-5.04 15.19-43.59 28.96-82.32 27.83-78.29 31.95-86.92 33.6-89.32 1.94-4.98 3.56-28.28 3.94-47.91l-5.86-21.19 0.96-2.69c0.06-0.16 5.21-14.55 9.35-27.45-3.03-4.73-3.54-9.09-3.32-12.21 0.6-8.46 6.65-13.51 7.85-14.43l2.42-1.86H619.3l2.42 1.86c1.21 0.93 7.25 5.97 7.85 14.43 0.22 3.12-0.29 7.48-3.32 12.21 4.15 12.9 9.3 27.29 9.35 27.45l0.96 2.69-5.86 21.19c0.37 19.64 2 42.93 3.94 47.91 1.66 2.41 5.77 11.03 33.6 89.32 13.77 38.73 27.2 77.28 28.96 82.32 1.6 3.29 7.16 16.29 10.99 44.2 2.47 18.03 2.55 227.31 0.25 622.03l-0.06 9.57c-0.06 15.34-12.86 27.83-28.5 27.83z m-251.6-865.22c-4.85 9.26-39.69 107.67-60.7 168.05l-0.23 0.67-0.34 0.63c-0.02 0.04-5.59 11.14-9.39 38.88-1.62 11.81-2.95 128.85-0.09 619.32l0.06 9.73c0.03 5.48 4.75 9.94 10.53 9.94h311.76c5.77 0 10.49-4.46 10.53-9.94l0.06-9.57c2.87-490.6 1.54-607.66-0.08-619.48-3.8-27.74-9.38-38.85-9.43-38.95l-0.33-0.63-0.19-0.6c-21.02-60.42-55.88-158.9-60.71-168.07-2.23-3.11-4.49-8.92-6.01-33.8-0.78-12.8-0.98-24.65-0.99-25.15l-0.02-1.3 5.04-18.21c-1.99-5.62-6.63-18.91-10.06-29.99l-1.59-5.12 3.74-3.83c1.08-1.1 1.54-1.91 1.72-2.39h-175.1c0.18 0.47 0.65 1.29 1.72 2.39l3.74 3.83-1.59 5.12c-3.43 11.08-8.08 24.37-10.06 29.99l5.04 18.21-0.02 1.3c-0.78 48-5.16 56.41-7.01 58.97z m-0.22 0.3l-0.09 0.12 0.09-0.12z m191.81-0.09c0.06 0.08 0.11 0.15 0.16 0.21-0.05-0.07-0.11-0.14-0.16-0.21z" p-id="1790" fill="#2c2c2c"></path></svg>